<svg xmlns="http://www.w3.org/2000/svg" xml:space="preserve" width="14" height="14"><path d="M5.302.24c-.172.027-.332.126-.498.176-.887.264-1.677.646-2.1 1.509-.176.36-.328.852-.328 1.258 0 .19.023.437.263.435.15-.001.296-.06.439-.094C4.183 3.26 4.397 2.3 4.826 1.398c.114-.24.22-.51.366-.731.07-.105.227-.2.26-.322.025-.1-.077-.114-.15-.103M8.52.257c.056.27.392.588.53.848.385.727.512 1.696 1.255 2.17.23.146.98.523 1.238.292.243-.22-.01-.945-.084-1.203-.307-1.076-1.19-1.677-2.236-1.946-.25-.063-.441-.161-.703-.161M1.47 1.85c-.083.029-.126.18-.168.25a5.978 5.978 0 0 0-.392.79C.48 3.922-.002 5.122.587 6.197c.248.453.604.706 1.087.879.14.05.367.142.517.069.098-.048.062-.19.05-.275-.03-.23-.04-.47-.04-.703-.002-.632-.277-1.115-.463-1.697-.152-.476-.19-.996-.212-1.492-.014-.316.006-.593.028-.907.003-.051.02-.255-.083-.22m11.035.029c-.111.038-.047.258-.036.337.048.347.022.705-.003 1.054-.07 1.024-.58 1.885-.675 2.896-.022.235-.03.467-.042.703-.004.076-.035.202.035.258.093.073.29.015.392-.01.224-.056.45-.142.644-.266 1.19-.756.894-2.261.517-3.377a6.644 6.644 0 0 0-.566-1.258c-.042-.068-.16-.374-.266-.337M2.814 7.104c.195-.076.32-.28.45-.44.439-.535.625-1.25.665-1.93.008-.143.106-.7-.02-.788-.124-.086-.584.359-.714.427-.167.088-.54.125-.643.284-.112.174.053.49.104.662a4.9 4.9 0 0 1 .18 1.258c.005.18-.06.347-.022.527m7.295-3.156c-.134.07-.038.48-.038.61 0 .652.17 1.38.53 1.93.068.106.418.65.564.555.122-.081-.01-.43.002-.554.034-.392.046-.763.172-1.14.06-.184.203-.505.114-.696-.077-.167-.547-.225-.71-.315-.133-.074-.49-.465-.634-.39m3.765 2.629c-.078.15-.085.318-.161.468-.213.418-.62.816-1.038 1.025-.49.243-1.066.245-1.55.522-.468.267-.87.666-1.26 1.03-.33.31-.655.649-.91 1.022-.07.105-.236.244-.234.38.003.223.386.359.56.392.575.11 1.226.13 1.785-.083 1.299-.497 2.348-1.543 2.702-2.913.117-.453.202-.878.222-1.346.007-.167.05-.406-.116-.497m-13.84.03c-.09.488.016 1.076.142 1.55.356 1.332 1.144 2.51 2.463 3.055.625.257 1.258.353 1.93.233.213-.037.56-.094.673-.306.118-.223-.24-.544-.363-.7-.48-.601-1.054-1.186-1.684-1.632-.575-.407-1.18-.465-1.814-.71-.44-.17-.767-.547-1.013-.935-.107-.17-.117-.52-.333-.556m4.3.176c-.134.236-.197.46-.438.623-.137.092-.503.126-.488.343.016.216.39.478.523.643.42.52.772 1.067 1.118 1.639.062.103.326.686.448.647.083-.027.09-.168.093-.238a4.454 4.454 0 0 0-.01-.79c-.103-.788-.383-1.525-.765-2.223-.125-.23-.213-.553-.48-.644m5.265.034c-.213.036-.37.495-.446.668-.311.7-.723 1.404-.723 2.195 0 .265-.004.525-.024.79-.006.078 0 .212.11.208.173-.008.35-.542.432-.677a15.01 15.01 0 0 1 1.12-1.61c.143-.176.495-.437.519-.671.019-.19-.393-.256-.52-.346-.122-.088-.347-.577-.468-.557M5.719 11.35c-.1.052-.072.2-.143.276-.082.088-.432.004-.432.165 0 .13.247.265.333.345.369.343.786.602 1.229.84 1.214.652 2.54.77 3.89.77.392 0 1.075.09 1.402-.166.15-.117.27-.448.34-.624.026-.065.066-.18-.003-.233-.09-.068-.268.036-.363.054-.293.057-.608.09-.907.09-1.137 0-2.31.037-3.394-.37-.538-.202-1.02-.446-1.463-.816-.091-.076-.363-.396-.49-.33m3.21.23c-.157-.054-.52-.252-.672-.21-.13.036-.22.177-.322.257-.08.062-.308.134-.254.27.18.45 1.123-.048 1.249-.318M1.42 12.813c-.097.06-.013.217.023.289.104.207.186.496.433.565.363.1.77.07 1.14.08.709.016 1.386.03 2.079-.151.22-.058.706-.028.86-.214.192-.231-.42-.55-.597-.552-.347-.006-.685.154-1.024.21a5.722 5.722 0 0 1-1.785.015 6.155 6.155 0 0 1-.79-.18c-.09-.027-.247-.12-.34-.062z" style="fill:currentColor;stroke:none;stroke-width:.0292598"/></svg>