<svg xmlns="http://www.w3.org/2000/svg" xml:space="preserve" width="14" height="14"><path d="M4.232.055c-.38.053-.11.541-.03.762.288.792.52 1.62.715 2.44.358 1.494.083 3.024-.175 4.507-.066.377-.213.793-.355 1.148-.06.15-.182.433-.109.595.072.16.495.12.643.145.392.064.808.193 1.177.34.228.09.523.25.775.225.643-.067 1.245-.477 1.895-.57.14-.02.573.004.643-.14.084-.175-.103-.516-.165-.68a8.072 8.072 0 0 1-.413-1.637c-.163-1.107-.326-2.208-.204-3.33.062-.57.298-1.137.426-1.694.12-.529.36-1.025.492-1.55.03-.118.187-.43.093-.528-.105-.11-.64-.038-.703.1-.122.27.005.631-.145.885-.136.232-1.003.281-1.18.076-.213-.248.06-.704-.07-.986C7.49.053 7.346.07 7.245.07 6.953.07 6.583.003 6.3.06c-.47.094.148 1.136-.43 1.186-.222.02-.737.08-.9-.097C4.61.765 5.032-.057 4.232.055M5.817 3.85c.133-.055.26.073.343.157.207.21.494.417.568.715.085.34.026.757.026 1.107 0 .78-.006 1.56-.024 2.338-.006.27.032.535.028.804 0 .1-.006.227-.118.268-.21.078-.6-.11-.8-.178-.18-.062-.52-.046-.64-.21-.163-.226-.017-.75.03-1 .148-.8.256-1.63.346-2.44.044-.393.072-.785.128-1.177.015-.11-.01-.333.113-.384m4.817 6.441c-.694.03-1.444.116-2.096.368-.134.052-.66.204-.572.406.07.156.325.284.458.385.355.272.71.542 1.033.852.128.122.284.39.46.438.256.07.506-.224.803-.103.231.095.292.417.247.64-.015.08-.14.31-.009.35.212.065.682-.182.881-.259.866-.335 2-1.037 2.145-2.043.137-.956-.66-1.8-.77-2.728-.03-.239-.025-.476-.026-.717 0-.074.02-.2-.066-.236-.144-.063-.494.125-.65.155-.61.118-1.48.126-1.803-.522-.339-.68.092-1.665.38-2.297.08-.178.218-.33.274-.516-.363-.1-.916.454-1.116.717-.529.694-.636 1.422-.636 2.268 0 .381.005.825.174 1.177.112.233.358.185.573.206.354.034.746.114 1.062.28.44.231.922.61.946 1.15.03.68-.59 1.302-1.233 1.45-.365.083-.955-.028-1.075-.445-.168-.587.532-.565.616-.976M1.85 4.893c.067.14.198.2.29.32.228.3.356.712.34 1.087-.033.788-.696 1.4-1.32 1.796-.24.154-.597.26-.788.477-.157.18-.19.457-.232.684-.094.52-.176 1.047-.123 1.58.117 1.167.984 2.05 2.15 2.213.225.032.615.107.831.02.281-.113.422-.66.634-.885.52-.546 1.29-.548 1.98-.408.93.19 1.825.71 2.611 1.222.23.15.471.284.69.45.161.124.276.281.487.315-.072-.483-.596-1.058-.919-1.407-1.098-1.19-2.925-2.047-4.564-2.036-.365.002-.426.516-.64.742-.42.444-1.244.063-1.497-.4-.107-.194-.2-.66.016-.81.126-.088.312-.04.456-.056a1.83 1.83 0 0 0 .66-.193c.862-.466 1.27-1.77 1.233-2.7-.035-.914-.617-1.764-1.52-1.993-.234-.06-.546-.104-.775-.018m1.12 8.986v.057H7.16l.947.03c-.09-.159-.267-.17-.43-.209a14.402 14.402 0 0 1-.804-.216c-.566-.17-1.08-.358-1.665-.45-.23-.036-.484-.128-.718-.063-.235.065-.39.385-.603.52-.293.186-.61.2-.918.33z" style="fill:currentColor;stroke:none;stroke-width:.0287079"/></svg>