<svg xmlns="http://www.w3.org/2000/svg" xml:space="preserve" width="14" height="14"><path d="M.946 12.495H.98c.514-.503 1.45-.66 2.13-.39.23.09.393.279.61.39.06-.257 0-.547 0-.812V9.958c0-.24.104-.644-.083-.831-.245-.245-1.001-.253-1.338-.337-.324-.08-.655-.144-.981-.222-.107-.026-.29-.067-.385.01-.158.124-.05.752-.05.94L.88 11.582c0 .282-.068.66.067.913m11.77-4.18c-.588.107-1.168.287-1.758.398-.201.038-.513.034-.632.235-.163.277-.044.896-.044 1.213 0 .967-.093 2.387 1.218 2.503.187.017.354.02.54-.016 1.334-.256 1.157-2.115 1.097-3.13-.025-.434.25-1.322-.42-1.202M7.61 4.343c-.14.327-.236.917-.083 1.252.1.217.325.35.462.54.196.275.262.65.262.982 0 .298-.101.624-.31.842-.126.133-.292.212-.387.376-.193.336-.088.979.056 1.319l.54-.56 1.046-.727.545-.66.744-.131 1.86-.314 1.318-.247c-.235-.285-.84-.233-1.184-.272a23.37 23.37 0 0 1-1.927-.321c-.257-.052-.57-.036-.811-.14-.238-.103-.333-.438-.51-.62-.323-.332-.763-.493-1.114-.79-.188-.157-.289-.417-.508-.53M.338 6.983v.067l1.083.184 2.13.35.744.13.47.599 1.053.744.575.598c.17-.338.258-.936.083-1.286-.102-.202-.31-.324-.44-.507-.218-.307-.26-.681-.251-1.05.014-.587.412-.708.68-1.15.216-.351.08-.964-.072-1.318l-.542.575-1.047.745-.51.62-.878.157zm12.685-5.513c-.417.544-1.29.63-1.928.483-.235-.053-.412-.204-.61-.33-.053-.035-.145-.095-.201-.03-.09.105-.001.576-.001.722V4.14c0 .202-.065.54.082.7.233.256.88.233 1.203.32.38.103.768.165 1.15.265.105.027.324.083.405-.02.116-.147.006-.486.002-.656-.015-.585.054-1.174.01-1.76-.035-.48.145-1.071-.045-1.521zM1.96 1.348C.594 1.568.876 3.498.879 4.478c0 .33-.18 1.26.304 1.212.62-.062 1.246-.298 1.86-.413.197-.037.53-.027.642-.227.155-.276.035-.9.035-1.214 0-.902.136-2.406-1.15-2.5a2.719 2.719 0 0 0-.61.012" style="fill:currentColor;stroke:none;stroke-width:.0338246"/><path d="M4.422 4.932h.068c.778-1.4 2.807-1.673 4.16-.932.41.225.556.64.914.897.208-.705-.278-1.718-.78-2.192-.254-.241-.611-.38-.835-.65-.141-.17-.199-.407-.285-.608-.157-.37-.295-.748-.458-1.116C7.167.243 7.12 0 6.994 0c-.12 0-.17.246-.204.331-.153.37-.288.748-.445 1.116-.093.22-.157.488-.317.67-.222.253-.584.37-.823.619-.509.533-.948 1.435-.783 2.195m5.156 4.138H9.51c-.779 1.398-2.807 1.671-4.16.93-.411-.224-.556-.64-.914-.897-.208.705.278 1.719.78 2.193.254.241.611.379.835.649.141.171.199.407.285.608.157.371.295.749.458 1.117.039.088.085.331.212.331.12 0 .169-.247.204-.331.153-.371.288-.748.445-1.117.093-.22.156-.487.317-.67.222-.253.584-.369.822-.618.51-.534.949-1.435.784-2.195" style="fill:currentColor;stroke:none;stroke-width:.0338246"/></svg>