<svg xmlns="http://www.w3.org/2000/svg" xml:space="preserve" width="14" height="14"><path d="M6.915 6.515c-.125-.265-.482-.506-.688-.718-.41-.42-.804-.88-1.07-1.407-.19-.38-.302-.79-.084-1.177.09-.16.432-.395.416-.575-.015-.154-.212-.22-.326-.283-.357-.198-.703-.418-1.062-.613-.644-.35-1.294-.703-1.924-1.075-.097-.057-.57-.355-.64-.173-.072.187.194.692.257.88.261.782.486 1.574.746 2.355.071.215.116.773.332.889.156.082.498-.162.683-.167.427-.011.8.22 1.12.475.373.295.687.66.968 1.043.123.167.21.434.384.553.232.158.65.085.888-.007m.172-.057c.167.19.704.208.91.057.151-.112.234-.391.35-.545a6.19 6.19 0 0 1 .98-1.06c.284-.236.677-.45 1.057-.444.207.003.622.212.797.096.167-.11.195-.616.261-.803.276-.775.486-1.573.746-2.355.06-.18.362-.768.234-.93-.068-.087-.208-.015-.282.024-.22.117-.44.238-.66.357-.746.404-1.476.828-2.21 1.25-.184.106-.68.273-.754.48-.064.182.217.359.312.485.172.229.194.467.182.746-.015.322-.193.626-.362.89a7.746 7.746 0 0 1-1.56 1.752M.97 3.8c-.205.026-.754-.086-.902.062-.16.16-.002.718.06.902.223.665.687 1.257 1.175 1.75.163.166.31.384.528.479.287.124.645.056.948.069.45.02 1.032.212 1.344.546.277.295.367.694.304 1.09-.024.155-.14.36-.107.515.03.137.203.224.295.318.184.186.328.402.452.63.33.608.484 1.276.774 1.896.13.279.357.527.537.775.13.18.378.768.65.734.107-.014.167-.138.222-.217.162-.23.316-.465.486-.69.566-.744.726-1.654 1.168-2.47a2.58 2.58 0 0 1 .422-.601c.106-.106.304-.2.355-.345.057-.164-.106-.385-.14-.546a1.212 1.212 0 0 1 .25-1.005c.347-.408.94-.593 1.458-.63.285-.02.586.04.862-.053.256-.086.477-.39.66-.58.485-.508.966-1.144 1.13-1.838.041-.173.177-.557.033-.703-.185-.186-.829-.072-1.077-.072-.115 0-.246-.014-.323.09-.105.144-.073.4-.12.57-.132.486-.305 1.017-.678 1.376-.35.337-.902.233-1.348.264-.31.02-.62.135-.919.217-.383.105-.739.354-1.006.643-.127.137-.217.332-.373.438-.14.096-.327.1-.487.139a2.67 2.67 0 0 1-1.55-.068c-.256-.084-.347-.33-.52-.51a2.732 2.732 0 0 0-.86-.584 3.66 3.66 0 0 0-1.234-.277c-.396-.017-.857.045-1.169-.244-.362-.336-.534-.846-.664-1.307-.055-.193-.068-.523-.198-.678-.102-.123-.297-.104-.438-.085m-.747 7.683c.096.175.313.143.488.143h.948c.115 0 .294-.033.395.03.12.073.093.253.093.372v1.034c0 .097-.053.442.09.458.088.01.17-.087.223-.143.175-.182.334-.383.5-.574.294-.34.841-.757 1.001-1.177.103-.27.052-.607.052-.89 0-.176.068-.537-.05-.68-.13-.16-.676-.066-.868-.066-.262 0-.555-.038-.804.06-.182.072-.328.232-.488.34-.526.35-1.023.795-1.58 1.093m13.524.086c-.067-.182-.247-.264-.402-.365-.244-.16-.48-.34-.717-.51-.294-.21-.64-.535-.977-.66-.355-.131-.859-.045-1.234-.045-.124 0-.32-.03-.414.073-.08.09-.046.276-.046.387 0 .333-.075.773.032 1.09.14.42.607.785.894 1.109.2.223.397.447.592.672.061.07.165.226.28.182.118-.046.07-.341.07-.44 0-.326.003-.651-.004-.976-.002-.107-.03-.3.05-.382.115-.122.376-.078.527-.078.405 0 .973.102 1.35-.057z" style="fill:currentColor;stroke:none;stroke-width:.0287136"/></svg>