<svg xmlns="http://www.w3.org/2000/svg" width="24" height="24" fill="none"><path fill="currentColor" d="M6.405 2.1c-.34.01-.69.511-.888.732-.65.72-1.427 1.323-2.065 2.052-.2.228-.732.538-.732.862 0 .265.287.397.444.563.515.54 1.028 1.082 1.581 1.58.416.375.746.818 1.177 1.177.137.115.285.29.483.287.306-.003.576-.43.784-.614.745-.657 1.389-1.443 2.118-2.13.221-.209.78-.593.692-.941-.075-.3-.475-.58-.692-.784C8.779 4.387 8.27 3.87 7.75 3.368c-.3-.29-.575-.615-.875-.915-.12-.119-.28-.358-.47-.353Zm5.803.823-.078.079c.102.352.44.54.614.862.385.711.448 1.735.222 2.51-.765 2.624-3.816 4.015-3.816 6.979 0 .279-.038.59.026.862.122.518.338 1.028.588 1.49a4.968 4.968 0 0 0 1.19 1.425c.54.45 1.398 1.106 2.117 1.163-.064-.293-.262-.4-.445-.627a4.719 4.719 0 0 1-.705-1.177c-.828-2.054.492-3.69 1.934-5.018-.133.457-.56.809-.758 1.254-.459 1.032-.673 2.173-.392 3.294.204.816.795 1.395 1.385 1.96.253.242.643.575 1.02.55.397-.028.772-.416 1.006-.707.16-.2.319-.456.392-.705.168-.578-.045-1.254-.405-1.726-.17-.221-.367-.357-.445-.627.988.312 2.318 1.02 2.196 2.274-.044.457-.31.883-.392 1.333.535-.098.941-.366 1.411-.614 2.348-1.239 2.905-4.003 1.987-6.365-.221-.568-.48-1.096-.732-1.646-.14-.305-.205-.604-.549-.706-.188.448-.076 1.012-.274 1.49-.37.888-1.586 1.048-2.21.3-.37-.444-.236-.966-.13-1.477.178-.852.347-1.706.262-2.587-.238-2.442-2.994-3.47-5.019-3.843ZM8.836 5.746H5.543l-1.569-.078c.39-.671 1.164-1.271 1.712-1.83.172-.175.454-.522.72-.522.278 0 .528.371.705.548.503.503 1.526 1.195 1.725 1.882ZM5.7 10.765c0 1.3.947 2.41 1.868 3.24.302.273.576.61.955.76l-.236-1.49.771-2.51-.248-.758.497-1.438-.784.628-1.334 1.333-.784.68-.705-.445Zm1.333 3.842c0 .61.346 1.268.614 1.804a6.911 6.911 0 0 0 2.287 2.64c.57.388 1.3.574 1.96.758.863.24 1.742.502 2.588.784.521.174 1.119.393 1.568.706.286.198.444.502.784.601l.654-1.725.836-1.333c-.467.233-.974.498-1.411.784-.203.132-.454.426-.706.444-.173.012-.379-.135-.549-.183-.42-.117-.83-.274-1.254-.392-1.378-.383-2.872-1.041-4-1.934-.605-.479-.77-1.176-1.267-1.699-.24-.252-.7-.248-1.007-.405-.418-.215-.702-.62-1.097-.85Z"/></svg>