<svg xmlns="http://www.w3.org/2000/svg" width="24" height="24" fill="none"><path fill="currentColor" d="M6.418 2.133c-.319.155-.603.564-.85.812L3.632 4.88c-.216.217-.86.665-.825 1.006.03.291.593.663.8.85a28.558 28.558 0 0 1 2.062 2.09c.175.195.692.883.98.798.268-.078.647-.598.85-.799.696-.684 1.416-1.362 2.064-2.088.206-.232.81-.568.76-.929-.043-.313-.524-.64-.735-.85L7.424 2.79c-.224-.224-.632-.84-1.006-.658Zm2.63 3.674H4.097l.62-.773 1.237-1.238.696-.528.619.606 1.16 1.16.619.773ZM20.11 19.112c.239-.605-.24-1.365-.567-1.856-.14-.208-.424-.431-.44-.697-.02-.394.333-.858.44-1.237.325-1.174.85-2.32 1.237-3.481.144-.433.412-.93.412-1.392 0-.336-.253-.553-.464-.774-.352-.367-.668-.715-1.07-1.031-1.266-.996-2.474-1.85-3.88-2.63-.505-.28-1.129-.688-1.702-.8-.313-.06-.73.214-1.006.348-.92.447-1.606 1.033-2.295 1.792-.197.219-.868.641-.683.993.294.56.765.127 1.122-.116.637-.434 1.303-.83 2.011-1.134.216-.094.586-.33.825-.31.372.032.844.41 1.186.567 1.131.519 2.121 1.293 3.094 2.063.406.32 1.11.848 1.302 1.341.15.384-.244 1.033-.373 1.392-.332.917-.547 1.898-.942 2.785-.18.408-.656 1.092-.605 1.547.062.563.884 1.078 1.237 1.47.338.374.663 1.016 1.16 1.16Zm-3.017-3.094h.154l1.174-3.326.515-1.702-.992-1.083-2.166-1.495-1.702-.877-.619.206-1.856.993-.606.554.451.542 1.07 1.16 3.03 3.326 1.547 1.702Zm-.078 2.32c-.407.703-1.308 1.074-2.01 1.406-.451.213-1.041.55-1.548.593-.273.023-.664-.209-.928-.297-.986-.328-2.157-.894-2.76-1.779-.61-.899-.92-2.221-1.262-3.249-.145-.434-.263-.885-.413-1.315-.112-.321-.381-.725-.361-1.082.015-.259.297-.452.464-.62.313-.313.619-.638.954-.928.188-.161.525-.31.632-.541.141-.305-.674-1.086-.967-1.07-.318.018-.528.392-.71.606-.42.496-.97.985-1.456 1.418-.2.178-.577.434-.516.748.07.36.312.72.413 1.083.285 1.026.696 2.022 1.083 3.016.375.963.556 2.15 1.134 3.017.62.93 1.793 1.465 2.76 1.92.533.253 1.266.583 1.856.633.409.034.799-.215 1.16-.361.651-.263 1.33-.465 1.934-.825.43-.258.867-.564 1.238-.903.128-.117.309-.273.309-.464 0-.259-.309-.449-.464-.619-.185-.202-.267-.328-.542-.386Zm-6.807-7.322c-.197.06-.39.308-.541.438-.372.321-1.11.785-1.2 1.315-.03.19.11.442.169.619L9.1 14.78c.218.655.458 1.301.722 1.934.205.491.325 1.07.696 1.47.476.514 1.144.784 1.779 1.031.558.217 1.02.46 1.624.258.709-.236 1.503-.523 2.089-.993.2-.16.53-.4.541-.683.015-.351-.62-.83-.837-1.083a52.669 52.669 0 0 0-2.953-3.184c-.64-.63-1.253-1.33-1.856-1.998-.178-.197-.366-.618-.697-.516Z"/></svg>