<svg xmlns="http://www.w3.org/2000/svg" width="24" height="24" fill="none"><path fill="currentColor" d="M2.29 16.563c0-.532-.259-1.021-.31-1.547-.134-1.385.194-2.998.787-4.254C4.075 7.992 6.45 5.39 9.483 4.549c.847-.236 1.818-.526 2.707-.439 1.223.12 2.357.403 3.48.903a9.804 9.804 0 0 1 2.553 1.65c1.803 1.627 3.472 4.095 3.713 6.574.063.654.142 1.348.077 2.011-.036.376-.162.8-.077 1.16.257-.2.33-.615.439-.928.262-.756.49-1.287.412-2.088-.248-2.552-.889-4.967-2.5-7.039a11.688 11.688 0 0 0-4.23-3.39C11.532.825 6.015 2.855 3.322 6.895c-1.096 1.642-1.846 3.602-2.037 5.569-.087.898-.206 1.628.194 2.475.198.42.365 1.46.812 1.624Zm2.63-2.243 3.944-.992 1.263-.22-.05.593-.285 1.392-1.03 5.105L8.4 21.9h6.884l-.207-.928-.618-2.94-1.031-4.872 1.701.245 3.636.915c-.07-.67-1.084-1.47-1.547-1.934-1.313-1.312-2.45-2.815-3.713-4.177-.397-.428-.771-.877-1.16-1.314-.13-.145-.25-.419-.464-.451-.254-.04-.403.297-.542.45-.366.407-.699.85-1.082 1.238-1.332 1.351-2.459 2.904-3.79 4.254-.456.462-1.496 1.277-1.548 1.934Z"/></svg>