<svg xmlns="http://www.w3.org/2000/svg" width="24" height="24" fill="none"><path fill="currentColor" d="M8.695 4.798c-.947-.274-2.638-.209-3.077.846-.144.347-.077.786-.077 1.154v12.77c0 .938-.04 1.851 1 2.27.243.098.587.038.847.038h8.231c.99 0 2.108.233 2.693-.769.217-.372.153-.817.153-1.23V6.721c0-.407.052-.862-.153-1.232-.574-1.033-2.092-.769-3.078-.769 0-.732.19-1.742-.384-2.308-.386-.38-.887-.307-1.385-.307h-3c-.478 0-.938-.057-1.308.307-.658.648-.234 1.598-.462 2.385Zm5.462 1.231-.205.77-.358 2-.36 1.692-.205 1.449.667.269 2.154.82-.539.693-1.307 1.23-3.616 3.617-1.077 1.077-.693.538c.035-.44.344-.834.526-1.23.47-1.025.907-2.071 1.41-3.078.19-.379.378-.764.552-1.154.048-.11.167-.262.167-.385 0-.274-.457-.344-.654-.41l-1.539-.513c-.292-.097-.502-.13-.539-.461l1.385-1.693 2.629-3.385.923-1.154.68-.692Z"/></svg>