<svg xmlns="http://www.w3.org/2000/svg" width="24" height="24" fill="none"><path fill="currentColor" d="m6.646 2.1-.871.795-1.962 1.936-.693.847.756.846 2.001 2 .923.68 1-.91 1.834-1.783.693-.91-.91-.975L7.57 2.754 6.646 2.1ZM9.11 5.6l-1.154.078H5.646L4.338 5.6l.616-.693 1.102-1.14.667-.475.616.41.846.898.924 1Zm-5.31 6.618v3.77c0 .468-.205 1.038.09 1.462.441.636 1.133 1.223 1.68 1.77.227.227.428.563.693.744.386.263 1.015.286 1.462.397.275.07 1.214.522 1.423.23.183-.254.006-.912.039-1.217l.615.539 1.308 1.384.693.603.615-.359 2.078-1.167c-.05.266-.294 1.141-.116 1.36.104.126.293.036.424.025.333-.027.664-.077 1-.077.987 0 1.696-.5 2.462-1.064.478-.351 1.037-.66 1.539-.988.295-.192.849-.34 1.039-.654.096-.16-.023-.36-.039-.525a16.057 16.057 0 0 1-.077-1.54c0-.623-.009-1.387-.128-2-.033-.17.049-.528-.18-.577-.275-.058-.736.214-1 .295-.68.207-1.44.495-2.154.513l.795-2.231.269-.924-.808-1.308-1.924-2.924-1.18-1.795-.538-.474-1.23 1.025-2.925 2.45-1.077.923-.513.487-.103 1.232-.153 1.462-.154.871-1.154-.55-1.847-.796-.923-.372ZM13.803 6.37c.118.298-.047.536-.077.847-.07.72-.185 1.44-.294 2.154-.342 2.236-.641 4.52-.86 6.771-.06.618-.17 1.23-.23 1.847-.023.23-.194.625-.103.846.1.246.972.1 1.18 0 .326-.156.499-.633.692-.923.56-.841 1.074-1.705 1.641-2.54.214-.312.38-.885.744-1l-.282 1.078-.666 2.077-.462 1.218-1.514 1.116-1.23.923-.462.244-.539-.5-1.231-1.231-1.385-1.385-.577-.616.038-.615.231-2.078.308-3.077.115-1.078 1.09-.91 2.642-2.244 1.231-.924Zm-8.925 7.31.68 1.231 1.641 2.847.68 1.231-.718-.692-1.104-1.462-.718-.795-.692.872h-.154c-.158-.377.038-.901.077-1.308.042-.427 0-.88 0-1.308 0-.317-.065-.576.308-.616Zm14.542 1.693.231 2.462-.038.833-1.04.654-2.307 1.412-.924-.052.77-.77 2.693-2.154v-.077l-1.924-1.308v-.23l2.54-.77Z"/></svg>