<svg xmlns="http://www.w3.org/2000/svg" width="24" height="24" fill="none"><path fill="currentColor" d="M6.578 2.1c-.335.01-.68.503-.875.72-.64.71-1.404 1.303-2.033 2.02-.197.225-.72.53-.72.849 0 .26.283.39.438.553.506.533 1.011 1.065 1.556 1.556.409.369.734.804 1.158 1.158.135.113.28.286.476.283.3-.004.566-.423.771-.604.733-.648 1.367-1.421 2.084-2.097.218-.205.768-.584.682-.926-.074-.295-.468-.57-.682-.772-.519-.49-1.02-.998-1.53-1.492-.296-.286-.567-.605-.862-.9-.117-.118-.277-.353-.463-.348ZM8.97 5.69H5.73l-1.544-.077C4.568 4.95 5.331 4.36 5.87 3.81c.17-.173.447-.515.708-.515.274 0 .52.366.694.54.495.495 1.502 1.176 1.698 1.853Zm-3.473 4.553c.048 1.825.45 3.822 1.03 5.557.315.949.759 1.947 1.44 2.701.843.934 1.898 1.574 2.933 2.264.608.406 1.624 1.196 2.392 1.132.353-.029.622-.22.926-.373.675-.337 1.31-.719 1.93-1.157.941-.667 1.988-1.281 2.675-2.251.963-1.36 1.34-3.031 1.672-4.631.22-1.053.334-2.097.438-3.164.04-.415.233-1.076.013-1.467-.212-.376-1.094-.383-1.48-.463-.974-.203-2.25-.56-3.087-1.106a10.841 10.841 0 0 1-1.775-1.44c-.429-.43-.661-.878-1.312-.914-.858-.048-1.284.82-1.8 1.363-1.11 1.166-2.308 2.27-3.448 3.41l-1.08 1.08c-.092.091-.24.308-.386.308-.392 0-.709-.74-1.08-.849Zm6.097-.681c.193-.032.225.153.257.295.08.346-.016.669-.128 1.004-.282.844-.997 1.638-1.904 1.827-.568.118-1.454.09-2.007-.078-.213-.065-.687-.368-.501-.656.151-.233 1.004-.279 1.273-.373.67-.232 1.468-.72 2.007-1.183.245-.212.688-.785 1.003-.836Zm6.252 3.228c.488.774.843 2.222.347 3.087-.369.643-1.587.429-1.788-.231-.296-.969.326-2.04.514-2.933-1.03-.19-1.872-.824-2.186-1.852-.068-.223-.328-1.206.025-1.287.226-.051.4.233.54.36.344.31.752.694 1.158.914.686.372 1.318.734 2.084.926.18.045.668.06.656.322-.023.533-1.006.567-1.35.694Zm-5.171 2.946c1.243-.207 2.08.443 3.087 1.003.19.105 1.193.883.694 1.055-.23.08-.423-.11-.617-.193-.335-.145-.725-.185-1.08-.244-1.187-.198-2.218-.034-3.396.064-.363.03-.672.193-1.004.322-.116.045-.32.121-.437.025-.301-.246.286-.645.437-.758.683-.513 1.449-1.13 2.316-1.274Z"/></svg>