<svg xmlns="http://www.w3.org/2000/svg" width="24" height="24" fill="none"><path fill="currentColor" d="m6.403 2.1-.848.823L3.78 4.698l-.771.925.694.772 1.98 1.993.875.694.797-.745L9.27 6.42l.681-.874-.45-.565-1.106-1.107-1.389-1.388-.604-.386Zm2.315 3.523c-1.128 0-2.28.032-3.395-.077-.22-.021-1.013.223-1.067-.077-.029-.161.117-.277.219-.373.269-.253.515-.517.771-.784.259-.27.838-1.08 1.234-1.08.252 0 .459.304.618.463.473.473 1.601 1.233 1.62 1.928Zm9.258-.746c-.183.067-.283.248-.296.438-.032.459.064.991.064 1.466v4.937c0 .62-.132 1.647.849 1.286.528-.194.309-1.456.309-1.903 0-1.653-.078-3.292-.078-4.938 0-.56.067-1.622-.848-1.286Zm-2.16.772c-.367.143-.245.892-.232 1.209.033.793.077 1.588.077 2.391 0 .334-.096.844.026 1.158.102.26.512.291.746.206.47-.173.231-.91.231-1.286 0-.85-.011-1.698 0-2.546.004-.304.13-.719-.038-1.003-.124-.21-.605-.209-.81-.13Zm4.243 0c-.377.147-.232.887-.232 1.209 0 .99-.11 2.055.026 3.034.065.476.21.946.823.72.485-.178.231-.906.231-1.285 0-.71-.068-1.455 0-2.16.03-.31.108-.61.078-.926-.05-.506-.406-.795-.926-.592Zm-4.32 5.915c-.35-.101-.696-.188-.888-.54-.18-.333-.116-.794-.116-1.157V7.552c0-.352.137-1.046-.154-1.298-.37-.322-1.076-.4-1.543-.4a3.766 3.766 0 0 0-3.381 2.084c-.742 1.484-.157 3.192.99 4.243.517.474 1.242.705 1.928.772.93.09 1.888-.148 2.623-.772.233-.197.453-.316.54-.617Zm-6.327.334c-.318.076-.514.31-.771.49-.522.36-1.768.957-1.736 1.722.021.51.5.892.81 1.234.359.398.647.887.977 1.312.821 1.055 1.095 2.4 1.749 3.549.382.67 1.197.962 1.826 1.337.222.132.487.418.771.347.246-.061.47-.316.694-.437.448-.242 1.027-.494 1.39-.862.502-.511.764-1.428 1.028-2.083.338-.839.807-1.59 1.35-2.314.406-.542.933-1.03 1.26-1.62.098-.177.284-.49.116-.681-.274-.311-1.136.013-1.517-.181-.778-.394-.067-1.643-.926-1.813-.283-.056-.406.256-.566.424-.18.19-.451.38-.669.528-.791.539-1.83.734-2.777.643-.72-.07-1.511-.465-2.058-.926-.283-.24-.535-.767-.95-.669Z"/></svg>