<svg xmlns="http://www.w3.org/2000/svg" width="24" height="24" fill="none"><path fill="currentColor" d="M2.111 16.568c.154-.364-.1-.774-.155-1.163-.095-.687-.067-1.33 0-2.017.247-2.538 1.953-5.08 3.801-6.75 1.853-1.672 4.552-2.725 7.06-2.482 3.414.332 6.558 2.837 8.132 5.818.648 1.228 1.119 2.641 1.254 4.034.083.851-.155 1.648-.155 2.483.369-.146.36-.359.491-.698.255-.654.44-1.232.44-1.94 0-2.514-.8-4.885-2.198-6.982a11.021 11.021 0 0 0-2.456-2.611c-.94-.715-2.104-1.419-3.259-1.707-1.313-.328-2.666-.546-4.034-.414-3.139.305-6.044 2.202-7.783 4.81-1.079 1.619-1.624 3.31-2.017 5.198-.184.882-.364 1.792 0 2.637.231.537.36 1.475.88 1.784Zm9.62-10.744c-.566.276-1.107 1.068-1.552 1.513-.133.133-.409.324-.375.543.037.234.376.389.53.543.13.13.268.4.466.44.458.092.657-.802 1.086-.802.43 0 .626.891 1.086.802.215-.042.383-.29.517-.44.142-.16.444-.317.478-.543.03-.194-.179-.345-.297-.465-.334-.339-.672-.673-1.008-1.009-.222-.222-.553-.766-.931-.582Zm-5.353 13.15c.285.112.699.008 1.008-.053.353-.068.75-.04 1.086-.18.46-.192.895-.74 1.242-1.087 1.967-1.967 4.003-3.867 5.986-5.818.444-.437.682.201 1.15.117.3-.055.887-.659 1.06-.906.328-.464-.94-.952-.982-1.383-.02-.205.267-.349.388-.465.353-.338.66-.738 1.009-1.086.115-.116.357-.28.349-.466-.011-.244-.73-.83-.97-.737-.723.282-1.059 1.325-1.707 1.72-.323.197-.882-.652-1.163-.789-.378-.184-1.063.806-1.151 1.125-.093.334.353.546.245.853-.113.327-.78.754-1.034 1.009-.867.867-1.765 1.714-2.585 2.624-.78.865-1.633 1.672-2.457 2.496-.348.348-.89.73-1.125 1.163-.116.215-.094.467-.116.698-.037.381-.163.785-.233 1.164Zm-.62-7.991c.347.192.633.625 1.008.75.399.133.64-.404 1.008-.155.416.28.785.77 1.164 1.112.155.14.304.356.543.297.491-.123 1.04-.886 1.396-1.228.144-.138.47-.301.35-.543-.067-.133-.243-.214-.35-.31-.388-.351-.94-.796-1.215-1.242-.164-.267.19-.463.259-.698.073-.254-.5-1.081-.75-1.15-.551-.153-.843.926-1.32.853-.173-.027-.349-.286-.465-.401-.538-.54-1.152-1.763-1.939-1.009-.11.105-.29.237-.336.388-.06.198.221.347.336.466.344.355.657.734 1.009 1.086.105.105.371.284.4.44.032.166-.3.342-.4.426-.269.228-.661.565-.699.918Zm0 .814c-.489.256-.713.95-1.242 1.164-.274.11-.942-.124-1.125.13-.148.205-.105 1.213.117 1.344.316.186.819-.055 1.163.064.518.18 1.015.912 1.397 1.294.19.19.397.523.698.374.156-.077.269-.252.388-.374.138-.143.338-.284.426-.466.127-.26-.09-.414-.258-.569-.249-.228-.459-.502-.711-.724-.108-.094-.305-.178-.336-.336-.078-.395.77-.554.71-.93-.05-.314-.891-1.147-1.228-.97Zm11.946 0c-.235.114-.966.765-.905 1.048.067.312.767.498.698.853-.06.306-.726.8-.957 1.008-.146.132-.388.237-.388.466 0 .365.857 1.182 1.242.97.648-.36.967-1.386 1.706-1.643.305-.105 1.255.176 1.384-.18.047-.133.013-.327.013-.466 0-.19.103-.606.013-.762-.083-.143-.34-.091-.479-.091-.377 0-.692.032-1.008-.207-.319-.24-.873-1.212-1.32-.995Zm-3.724 2.638c-.43.216-.824.785-1.163 1.125-.116.115-.362.285-.362.465 0 .302.593.674.801.854.737.635 1.423 1.827 2.431 1.939.363.04.723.115 1.086.155.133.015.327.122.453.039.249-.165-.058-.88-.065-1.125-.033-1.186-1.304-2.001-2.095-2.793-.252-.252-.66-.872-1.086-.659Zm-3.8 3.879c-.19.098-.884.755-.893.97-.008.186.233.35.35.465l1.163 1.164c.222.221.82 1.056 1.163.982.297-.064.717-.69.931-.905l1.242-1.241c.115-.115.362-.285.362-.466 0-.239-.39-.456-.543-.607-.13-.126-.26-.341-.44-.388-.399-.104-.988.746-1.241.995-.118.117-.272.339-.466.272-.387-.135-.79-.767-1.086-1.047-.148-.14-.324-.31-.543-.194Z"/></svg>