<svg xmlns="http://www.w3.org/2000/svg" width="24" height="24" fill="none"><path fill="currentColor" d="m6.296 2.1-.852.736L3.43 4.85l-.762.93.53.62 1.316 1.316 1.317 1.317.542.362.853-.75 2.065-2.09.685-.853-.581-.645-.995-.982-1.459-1.472-.645-.503Zm2.479 3.447v.078l-1.162.077H5.21l-1.317-.077c.42-.669 1.226-1.238 1.795-1.808.21-.21.4-.614.762-.503.246.074.434.431.62.606.565.533 1.07 1.176 1.704 1.627Zm8.676 13.17c-.142-.492-.613-.952-.878-1.395-.09-.15-.312-.356-.31-.542.005-.333.869-1.002 1.188-.904.497.152.522.88 1.007.956.28.043.556-.168.775-.31.52-.34 1.032-.689 1.549-1.034.206-.137.502-.21.542-.49.071-.49-.42-1.039-.594-1.472-.316-.785-.491-1.784-.98-2.479-.159-.224-.408-.346-.595-.542-.456-.477-.906-.954-1.394-1.394-1.01-.911-1.949-2.014-2.763-3.099-.263-.35-.539-1.218-.955-1.369-.434-.156-.98.3-1.317.517-1.055.674-1.797 1.641-2.712 2.479-.244.223-.453.474-.697.697-.145.132-.361.242-.374.465-.017.275.507.571.671.774.488.607.917 1.31 1.24 2.015.221.483.04.999-.09 1.471-.051.18-.2.423-.091.607.074.127.236.186.348.271.315.24.623.51.93.762 1.16.95 2.38 1.804 3.563 2.724.527.41 1.264 1.22 1.937 1.291Zm-8.599-5.113c.064.6.624 1.079.852 1.626.297.713.068 1.472-.155 2.17-.072.228-.093.502-.245.697-.268.344-1.046.42-1.459.529-.833.22-2.043.633-2.582 1.33-.25.324-.647.795-.49 1.24.13.37.57.382.903.387.828.011 1.648.22 2.48.232.364.005.71.114 1.084.077.715-.07 1.452-.202 2.169-.232.52-.022 1.502.061 1.936-.258.365-.269.391-.815.49-1.214.101-.402.295-.79.466-1.162.121-.265.358-.417.439-.697l-2.324-1.834-.93-.645-1.704-1.562-.93-.684Z"/></svg>