<svg xmlns="http://www.w3.org/2000/svg" width="24" height="24" fill="none"><path fill="currentColor" d="M6.03 2.132c-.345.168-.658.62-.929.891-.646.647-1.28 1.308-1.936 1.936-.237.228-.865.672-.916 1.007-.045.294.5.669.684.852l2.4 2.401c.195.194.622.811.93.75.286-.059.65-.625.852-.827.74-.74 1.555-1.446 2.246-2.22.206-.23.82-.588.75-.956-.067-.338-.595-.697-.827-.93L7.115 2.869c-.233-.233-.695-.925-1.084-.736Zm2.712 3.912H3.63c.03-.37.29-.522.542-.775l1.394-1.394c.168-.168.418-.583.697-.517.288.07.52.466.71.672.317.342.659.681.994 1.007.324.313.762.516.775 1.007Zm4.647-1.356c-.22.112-.765 1.012-.581 1.253.161.21.59.003.813.025.134.013.325.123.452.039.11-.073.1-.239.065-.349-.075-.231-.451-1.119-.75-.968Zm-1.084 2c-1.138.27-.498 1.516-.465 2.299.07 1.689.379 3.355.542 5.034.046.466.11.93.155 1.394.023.239-.029.469.077.697.195.42.989.518 1.394.362.358-.138.383-.663.388-.981.01-.745.132-1.586.245-2.324.234-1.533.508-3.173.53-4.724.005-.427.258-1.085-.026-1.472-.143-.194-.441-.287-.672-.31-.632-.061-1.552-.12-2.168.026Zm3.717.13c-.085.215-.02.314 0 .542.024.285-.155.568-.052.852.103.281.436.353.672.478.303.16.58.387.852.593.26.198.6.774.93.788.218.01.333-.169.464-.31.13-.14.306-.274.361-.464.112-.383-.576-.86-.826-1.06-.299-.235-.612-.458-.93-.67-.416-.278-.991-.623-1.47-.749Zm-7.668 3.253c.456-.011.617-.32.93-.62.29-.278.653-.57 1.007-.76.25-.136.601-.19.736-.479.086-.187-.04-.558-.04-.774l-.774.542L8.755 9.45l-.4.62Zm11.076 1.936c.102.39.277.759.362 1.162.138.668.076 1.584-.052 2.246-.072.371-.09.883-.387 1.149-.277.247-.806.09-1.162.09-.133 0-.337-.037-.426.091-.116.165.032.384.103.53.163.334.688.877.387 1.238-.44.53-1.094.968-1.69 1.317-.21.122-.503.182-.685.335-.223.189-.29.59-.478.827-.214.27-.524.523-.62.852.473.186 1.034-.185 1.473-.362.776-.313 1.478-.647 2.168-1.135.456-.323.826-.93 1.317-1.175.578-.29 1.4.138 2.014-.04-.066-.627-.857-1.083-.917-1.703-.036-.374.259-.85.297-1.24.103-1.06.249-2.362-.013-3.407-.06-.242-.1-.897-.31-1.046-.289-.204-1.125.116-1.381.271ZM5.334 19.21c.196-.03.35.003.542 0 .388-.005.938-.227 1.317-.038.418.209.789.725 1.161 1.02a8.79 8.79 0 0 0 2.014 1.174c.37.16 1.705.952 1.782.245-.35-.202-.66-.559-.84-.93-.087-.178-.08-.38-.245-.516-.677-.554-2.153-.825-2.44-1.807-.143-.491.863-1.155.543-1.613-.1-.142-.357-.09-.504-.09-.542 0-1.108.226-1.29-.465a7.91 7.91 0 0 1-.181-3.098c.034-.25.385-.952.22-1.149-.27-.321-1.105-.182-1.356.09-.139.15-.146.479-.194.671-.259 1.036-.167 2.203-.064 3.253.043.45.327.95.296 1.395-.044.643-1.032 1.215-.761 1.858Zm7.745-1.136c-2.12.501-1.212 3.832.852 3.202 1.993-.609 1.16-3.677-.852-3.202Z"/></svg>