<svg xmlns="http://www.w3.org/2000/svg" width="24" height="24" fill="none"><path fill="currentColor" d="M7.414 2.13c-.318.154-.6.562-.848.81-.602.601-1.185 1.223-1.786 1.823-.22.22-.758.533-.758.874 0 .387.604.694.848.925.664.625 1.225 1.358 1.927 1.952.196.166.542.74.848.63.277-.1.565-.527.77-.732l1.928-1.927c.194-.194.805-.617.745-.925-.056-.282-.55-.575-.745-.77-.663-.663-1.294-1.459-2.004-2.056-.23-.194-.58-.772-.925-.604ZM9.88 5.637H5.256c.033-.318.242-.474.462-.694.408-.407.802-.839 1.233-1.22.163-.144.376-.49.617-.462.249.028.456.366.616.526.535.535 1.435 1.14 1.696 1.85Zm1.233 6.166c.06.557 1.245.725 1.696.938.687.324 1.424.657 2.158.86.28.078.55.304.848.283.394-.027.905-.5 1.233-.72.246-.163.758-.396.886-.667.148-.314-.305-.402-.5-.488-.347-.154-1.447-.632-1.465-1.054-.016-.386.46-.59.668-.848.447-.557.88-1.2.95-1.927.206-2.111-1.243-4.085-3.468-4.085-.554 0-1.424.043-1.836.489-.399.43.59.669.551 1.053-.021.221-.34.393-.474.54-.454.49-1.34 1.077-1.593 1.695-.287.702.447 1.831.899 2.312.219.234.774.513.565.925-.167.33-.799.543-1.118.694Zm-1.772.848c1.239.783 2.696 1.598 4.085 2.08.639.223 1.204.524 1.772 0-.256-.406-1.023-.535-1.464-.718-1.114-.464-2.14-1.09-3.237-1.594-.427-.195-.984-.35-1.156.232Zm9.865-.129c-.245.072-.424.334-.616.489-.471.379-.93.801-1.465 1.091-1.608.872-3.095 1.982-4.701 2.852-.536.29-1.077.562-1.619.848-.16.084-.395.138-.526.27-.256.255.126.971.449.976.215.003.438-.211.617-.308.628-.341 1.247-.694 1.85-1.08 1.154-.737 2.332-1.582 3.545-2.222.93-.491 2.016-1.027 2.774-1.785.123-.123.325-.36.347-.54.037-.289-.37-.673-.655-.591Zm-6.012 3.058c-.578-.35-1.244-.61-1.85-.912-.595-.298-1.2-.622-1.772-.964-.172-.103-.4-.351-.617-.321-.657.09-.764.963-.526 1.426.177.346.497.553.732.848.256.32.45.69.72 1.002.114.133.285.488.462.526.237.052.572-.257.77-.36.598-.307 1.724-.676 2.081-1.245Zm6.783-1.31c-.61.128-1.105.787-1.619 1.13-1.006.671-2.057 1.313-3.083 1.94-.36.22-.717.435-1.079.642-.121.07-.3.196-.192.36.07.106.236.092.346.115.36.075.723.142 1.08.231.401.101 1.137.382 1.541.257.387-.12.526-.807.707-1.13.416-.75.87-1.469 1.387-2.158.352-.47.862-.751.912-1.388Zm-7.63 4.508c-.731.268.01.633.385.784 1.023.412 2.307.599 3.391.72.24.026.688.199.912.038.177-.128.14-.623-.064-.707-.276-.113-.704-.07-1.002-.116-.73-.11-1.443-.296-2.158-.474-.453-.114-.991-.418-1.464-.245Zm-.771 1.118c.273.868 1.08 1.236 1.85 1.631.205.106.457.363.693.373.345.014 1.065-.504 1.233-.771l-.925-.18-1.387-.462-1.464-.591Z"/></svg>