<svg xmlns="http://www.w3.org/2000/svg" width="24" height="24" fill="none"><path fill="currentColor" d="M2.04 16.8h.076c0-.657-.245-1.278-.309-1.93-.128-1.321.36-2.898.876-4.096C4.429 6.72 9.068 3.282 13.629 4.233a9.733 9.733 0 0 1 3.554 1.519c.703.478 1.436.988 2.009 1.623 1.77 1.962 2.912 4.325 3.167 6.953.076.78-.154 1.543-.154 2.318.32-.104.313-.477.412-.773.246-.737.438-1.303.438-2.086 0-2.866-1.01-5.573-2.808-7.803-1.634-2.029-4.23-3.609-6.85-3.863-.48-.047-.987 0-1.468 0-1.483 0-3.001.24-4.327.94-3.316 1.75-5.815 5.048-6.335 8.795-.104.744-.383 1.562-.31 2.318.043.435.347.843.516 1.236.198.461.298.966.566 1.39Zm4.635-4.326c1.273 0 2.615-.5 3.631-1.262.426-.32.653-.878 1.082-1.133.155.393.5.585.85.798.538.33 1.045.725 1.545 1.108.31.236.874.66.837 1.107-.02.25-.239.566-.373.773-.508.777-1.415 1.385-2.24 1.764-.656.3-1.313.162-1.598 1.017-.168.503.095 1.075.22 1.545.076.29.134.842.334 1.07.096.108.22.096.322 0 .529-.509.895-1 1.571-1.366 1.919-1.04 5.059-2.042 4.79-4.803-.18-1.853-2.079-3.343-3.554-4.224-.51-.305-1.532-.245-1.751-.875-.232-.67.352-1.72.721-2.241.153-.216.338-.364.412-.618-.597.016-1.122.378-1.623.67-.793.462-1.501.98-2.06 1.725-.746.995-1.009 2.31-1.584 3.4-.193.366-.494.74-.837.978-.275.191-.555.241-.695.567Zm4.327-1.159c0 .337.037.688-.103 1.004-.208.468-.704.785-1.134 1.018-1.467.795-2.885.605-4.48.605.024.313.207.548.283.85.12.484.162.983.283 1.468.253 1.013 1.01 1.976 1.906 2.51.544.326 1.136.346 1.7.58.343.143.48.502.85.541-.16-.863-.894-1.456-1.366-2.163-.23-.347-.48-.72-.412-1.16.076-.486.847-.616 1.236-.746.935-.311 2.074-.886 2.447-1.88.282-.752-.033-1.489-.49-2.086-.201-.265-.377-.505-.72-.541Zm6.49 4.79c-.393.996-1.28 1.929-2.24 2.383-1.305.615-3.417.545-3.838 2.33-.08.338-.026.736-.026 1.082.377-.04.544-.42.927-.515 2.009-.502 4.155-.854 5.035-3.04.16-.396.296-.804.296-1.235 0-.33.067-.688 0-1.005h-.154Z"/></svg>