<svg xmlns="http://www.w3.org/2000/svg" width="24" height="24" fill="none"><path fill="currentColor" d="M2.198 16.44c.152-.36-.1-.766-.154-1.153-.094-.68-.066-1.318 0-1.999.258-2.648 2.103-5.348 4.152-6.971 1.489-1.179 3.254-1.994 5.152-2.179 3.921-.38 7.754 2.419 9.521 5.767.642 1.217 1.11 2.618 1.244 3.998.082.844-.154 1.634-.154 2.46.365-.143.356-.355.487-.691.252-.648.436-1.221.436-1.922 0-2.492-.794-4.843-2.179-6.92a10.928 10.928 0 0 0-2.435-2.59c-.931-.707-2.085-1.405-3.23-1.69-1.301-.326-2.642-.543-3.998-.41-3.11.302-5.99 2.182-7.714 4.766-1.07 1.605-1.61 3.282-1.999 5.152-.182.875-.36 1.777 0 2.614.23.533.356 1.462.871 1.769ZM10.887 6.6c-.256-.054-.529-.409-.77-.372-.398.061-.83.77-.743 1.14.34 1.437.994 2.877 1.576 4.23.176.407.354.825.539 1.23.117.255.14.515.474.538.39.028.445-.244.564-.538.187-.465.407-.915.59-1.384.52-1.338 1.306-2.728 1.563-4.152.057-.32-.398-.972-.718-1.051-.299-.074-.543.327-.845.359 0-.366.094-.883-.026-1.23-.104-.302-.767-1.057-1.128-.987-.304.06-.811.647-.974.91-.212.34-.102.918-.102 1.307ZM6.888 8.214c.037.342.345.719.552 1 .625.849 1.544 1.845 2.678 1.845-.21-1.001-1.327-1.84-2.153-2.333-.345-.206-.668-.48-1.077-.512Zm7.074 2.845c1.081 0 2.163-1.056 2.705-1.923.186-.297.42-.566.448-.922-.394.03-.681.3-1 .512-.85.567-1.926 1.255-2.153 2.332Zm-.769 2.23c.406 0 1.76-.032 1.077.691-.1.106-.188.162-.308.231.141.473.875.571 1.308.68 1.095.273 2.33.396 3.46.396.489 0 1.073-.072 1.23-.615l-.846-.615c.439-.034.862-.154 1.307-.154.184 0 .46.054.602-.09.45-.45-.164-1.051-.461-1.32-.32-.288-.728-.805-1.14-.948-.212-.073-.408.031-.616.052-.418.04-.815-.077-1.23-.077l.846-.77c-.21-.702-1.047-.106-1.46.078-.983.436-1.95.851-2.846 1.46-.349.238-.833.573-.923 1Zm-6.766-1.846-1.23.154-.615-.052-.462.36L2.93 12.98l.051.833.68.09 1.23.153-.846.615c.156.543.74.615 1.23.615 1.13 0 2.363-.122 3.46-.397.423-.106 1.17-.22 1.307-.679-.103-.073-.218-.14-.308-.23-.728-.744.753-.633 1.077-.77l-1.307-1.166-2.46-1.217-1.077-.385-.372.154.833.846Zm4.152 2.845c.036.342.329.46.436.769.12.346.025.865.025 1.23v2.614c0 .422.103 1-.09 1.384-.463.929-1.906.467-2.216 1.538l1.538.077h3.306l1.692-.077c-.323-1.114-1.911-.58-2.282-1.692-.144-.433-.025-1.082-.025-1.537 0-1.1-.046-2.209 0-3.307.013-.309.516-.683.423-.922-.105-.268-.509-.23-.73-.23-.697 0-1.427-.087-2.077.153Zm-3.69 3.998c1.016 0 2.232-.885 2.793-1.691.137-.197.553-.906.397-1.141-.186-.282-.905.122-1.115.218-.963.441-1.988 1.504-2.076 2.614Zm7.073-2.845c.26 1.409 1.725 2.845 3.23 2.845-.201-1.088-1.02-2.137-2-2.627-.365-.183-.838-.383-1.23-.218Z"/></svg>