<svg xmlns="http://www.w3.org/2000/svg" width="24" height="24" fill="none"><path fill="currentColor" d="m5.545 2.1-.87.75L2.62 4.907l-.764.87.448.553L3.727 7.75l1.344 1.344.553.356.711-.606 2.214-2.2.698-.949-.54-.632L7.126 3.55 6.019 2.456 5.545 2.1Zm2.45 3.675h-4.9l.553-.711L4.913 3.8l.711-.513.395.342 1.028 1.04.948 1.107Zm-2.213 8.458c.404-.143.46-.757.646-1.107a8.14 8.14 0 0 1 1.58-2.108c2.183-2.075 5.556-3.108 8.524-3.108l-.87-.172-2.608-.145-3.004.145-.869.132-.79.725-1.792 1.765-.33 1.106-.487 2.767Zm.87 7.272c.41-.13.468-.89.645-1.265A19.079 19.079 0 0 1 9.247 17c2.194-2.926 5.31-4.533 8.629-5.824 1.032-.401 2.099-.755 3.161-1.08.34-.104.973-.08 1.107-.448-2.048 0-4.063.04-6.086.238-1.46.142-2.85.607-4.269.962-.708.177-1.42.354-2.134.513-.345.077-.92.085-1.172.356-.478.513-.503 1.561-.725 2.2-.854 2.461-1.106 4.99-1.106 7.588Zm4.268.395c.461-.05.452-.602.659-.948a13.74 13.74 0 0 1 1.554-2.135c1.543-1.709 3.421-3.047 5.375-4.242.788-.481 1.681-.805 2.45-1.29-.205-.243-.797-.021-1.106.052-.932.22-1.842.455-2.767.712-1.081.3-2.103.633-3.162 1-.482.168-1.183.29-1.58.62-.309.255-.395.75-.567 1.093-.521 1.043-.587 2.183-.698 3.32-.058.6-.158 1.214-.158 1.818Z"/></svg>