<svg xmlns="http://www.w3.org/2000/svg" width="24" height="24" fill="none"><path fill="currentColor" d="M2.121 16.68h.077c0-.652-.244-1.268-.307-1.916-.068-.702.085-1.541.256-2.222.87-3.484 3.576-6.769 7.024-7.918.718-.24 1.456-.491 2.222-.511l-.6 1.38L9.452 8.48l-.434 1.226c.43-.034.831-.577 1.226-.55.276.02.453.372.613.55.2.222.707.613.74.92.023.196-.187.441-.268.612-.193.41-.36.823-.562 1.226-.092.186-.253.392-.204.614.065.29.362.606.537.842.378.515.885 1.052 1.187 1.61.137.252-.254 1.01-.51 1.11-.347.136-.656-.811-.78-1.034-.515-.926-1.078-1.826-1.583-2.758-.136-.252-.318-.807-.562-.958-.5-.31-1.207.638-1.673.676-.343.03-.66-.594-1.073-.638.164-.779 1.352-.868 1.839-1.38.213-.222.125-.49.179-.766.107-.553.122-1.133.23-1.685.082-.425.3-.892.127-1.303-.27.17-.308.412-.447.69-.23.46-.47.925-.715 1.379-.208.384-.438.905-.766 1.2-.327.295-.896.455-1.29.652-.318.159-.67.285-.996.421-.152.063-.406.108-.37.332.055.353.65.842.855 1.15.603.905 1.124 1.879 1.124 2.988.564 0 1.122-.445 1.61-.702.19-.1.381-.292.612-.179.742.36 1.024 1.537 1.175 2.26.045.215.162.74-.038.907-.137.115-.31-.016-.447-.064-.357-.124-.774-.276-1.15-.306.037.352.296.459.537.69.417.399.817.817 1.226 1.226.508.507 1.138.978 1.584 1.532.243.302.685.873 1.098.92.774.087 1.21-.47 1.686-.996.906-1.004 1.956-1.88 2.912-2.836.363-.364 1.093-.85 1.15-1.379-.402.032-.96.255-1.355.179-.228-.044-.34-.374-.408-.562-.228-.63.115-1.22.23-1.84l2.145 1.15 1.175-4.904.486-1.073V9.21l-1.048-.115-1.686-.435-.996-.357-.396-.664-.817-1.456-.55-.767.46 3.142.154 1.073.115.511.574.115 1.763.242.46.588-.18.613-.306.46-.434.434-1.073-.536-.677-.166-.23.804-.549 1.916c-.605-.239-1.212-1.002-1.686-1.456-.144-.138-.4-.267-.472-.46-.086-.227.185-.503.294-.69.258-.443.503-.917.728-1.379.085-.175.235-.404.191-.613-.072-.344-.435-.604-.664-.843-.343-.358-.638-.761-.945-1.15-.14-.176-.349-.322-.434-.536-.079-.195.057-.416.076-.613.047-.482.03-.982.128-1.456.063-.301-.005-1.091.268-1.264.271-.172.774.01 1.06.038 1.31.128 2.702.641 3.755 1.431.559.418 1.166.782 1.686 1.251 2.07 1.87 3.335 4.617 3.602 7.357.075.772-.154 1.53-.154 2.299.318-.103.311-.473.409-.767.244-.73.434-1.292.434-2.069 0-2.843-1.002-5.527-2.784-7.74-1.62-2.011-4.197-3.578-6.794-3.83-.475-.047-.979 0-1.456 0-1.47 0-2.977.238-4.292.932C4.35 4.789 1.871 8.06 1.355 11.776c-.103.738-.38 1.55-.307 2.299.042.431.344.836.511 1.226.197.457.296.958.562 1.379Zm12.414-.46.358 1.686-.358.46-1.226.996-.077-.076c.206-.781.557-1.594.818-2.376.116-.348.051-.678.485-.69Z"/></svg>