<svg xmlns="http://www.w3.org/2000/svg" width="24" height="24" fill="none"><path fill="currentColor" d="m6.06 2.1-1.032.89-1.832 1.833-.749.954.607.645 1.394 1.393 1.148 1.162.464.284.877-.684 2.04-2.039.696-.916-.646-.696-1.419-1.394-1.083-1.084L6.06 2.1Zm2.4 3.367v.155L6.912 5.7H3.66l.852-1.007 1.097-1.109.451-.284.697.542L8.46 5.467Zm8.902-.541c.06.744.516 1.499.672 2.245.36 1.731.382 3.708-.569 5.264-.49.802-1.3 1.785-2.348 1.741-.535-.022-1.346-.423-1.38-1.045-.015-.254.463-.608.206-.813-.348-.277-1.113-.3-1.535-.348-1.446-.16-2.679.033-3.948.774-.9.525-1.798 1.486-2.142 2.477-.392 1.13-.076 2.517 1.058 3.084.63.315 1.423.327 2.09.142.4-.111.767-.356 1.161-.439 0 1.065.09 2.352.852 3.174 1.165 1.256 3.409.608 4.722-.013 2.577-1.217 4.523-3.735 5.135-6.49.27-1.218.305-2.265 0-3.483-.085-.342-.043-.965-.413-1.084 0 2.956-1.456 5.81-4.18 7.135a10.34 10.34 0 0 1-2.632.864c-.504.099-1.16.054-1.548-.335-.305-.305-.311-.72-.465-1.084-.73.231-1.779.62-2.554.362-1.14-.38-.61-1.97-.052-2.607.65-.741 1.828-.734 2.684-.464-.157.263-.489.394-.594.697-.266.766.435 1.22 1.058 1.419 1.226.391 2.672.236 3.87-.18.71-.247 1.554-.703 2.091-1.24 1.93-1.93 1.843-5.01.71-7.276-.366-.733-.865-1.326-1.407-1.936-.198-.222-.244-.453-.542-.541Zm-11.921 5.96c-.095.447-.327.868-.44 1.316-.256 1.03-.36 2.048-.257 3.097.045.464-.027.962.155 1.393.196-.227.196-.63.258-.929.098-.471.273-.948.464-1.393.68-1.576 2.06-2.969 3.69-3.535 1.387-.482 3.291-.569 4.645.051.436.2.81.505 1.045.93.095.17.099.476.284.58.154.086.332-.053.452-.142 1.073-.806 1.49-2.713.67-3.845-.404-.558-1.335-.865-1.986-.929-.688-.066-1.471.181-2.09.465-.237.108-.614.512-.852.516-.158.002-.337-.201-.464-.284-.354-.23-.949-.593-1.394-.44-.335.118-.608.506-.851.75l-1.858 1.857c-.187.187-.564.737-.826.788-.144.027-.435-.24-.645-.246Z"/></svg>