<svg xmlns="http://www.w3.org/2000/svg" width="24" height="24" fill="none"><path fill="currentColor" d="m5.697 2.1-.772.733L3.06 4.737l-.76.875.696.85 2.007 2.006.849.67.849-.747 1.93-1.93.694-.849-.386-.527-1.003-1.017-1.544-1.543-.695-.425Zm2.47 3.512H3.536c.036-.347.302-.533.54-.772l1.158-1.158c.147-.146.378-.486.618-.45.256.04.521.432.694.605.513.513 1.37 1.094 1.621 1.775Zm5.636 15.593c-.038-.354-.32-.431-.554-.669-.303-.308-.557-.68-.81-1.029-.742-1.027-.997-2.374-.875-3.628.124-1.278.853-2.528 1.775-3.397.237-.222.501-.415.772-.592.263-.171.52-.162.618-.488-.26-.103-.547-.287-.438-.618.088-.262.334-.36.515-.54.395-.395.848-1.073.978-1.621.405-1.716-.32-3.559-1.982-4.297a3.49 3.49 0 0 0-2.624-.052c-.22.086-.607.144-.682.412-.132.468.879.589.553 1.08-.357.54-1.034 1.071-1.505 1.519-.231.22-.6.435-.605.797-.01.738.535 1.572 1.017 2.085.223.238.713.439.591.849-.115.39-.75.536-1.067.72-.792.462-1.65.958-2.316 1.596-.204.195-.496.42-.592.694-.115.333.076.664.258.927.448.646 1.053 1.193 1.492 1.852.517.777.831 1.642 1.222 2.47.177.375.31.897.579 1.21.326.378.793.561 1.21.81.277.166.75.605 1.08.605.242 0 .433-.24.618-.36.233-.153.506-.25.771-.335Zm2.778-9.237c-1.839.358-3.522 1.397-3.988 3.37-.26 1.1-.133 2.385.374 3.397.842 1.687 3.006 2.726 4.85 2.368 1.853-.36 3.667-1.936 3.86-3.912.23-2.374-1.365-4.895-3.86-5.172-.412-.045-.816-.133-1.236-.051Zm-.077.914a3.946 3.946 0 0 1 2.084.282c.202.087.613.176.528.476-.085.303-.686.7-.913.927L15.81 16.96l-1.158 1.157c-.135.135-.335.429-.54.438-.24.01-.326-.272-.412-.438-.276-.529-.44-1.331-.348-1.93.254-1.657 1.459-3.047 3.152-3.306Zm-1.544 6.702c.11-.382.5-.576.772-.849.396-.396.785-.802 1.171-1.21.74-.78 1.548-1.497 2.303-2.264.21-.213.42-.694.772-.694.312 0 .455.458.54.694.255.705.312 1.43.13 2.162-.628 2.506-3.583 3.49-5.688 2.161Z"/></svg>