<svg xmlns="http://www.w3.org/2000/svg" width="24" height="24" fill="none"><path fill="currentColor" d="M2.293 16.3c0-.538-.253-1.062-.306-1.606-.15-1.53.408-3.237 1.084-4.589C4.358 7.53 6.604 5.603 9.253 4.573c.842-.328 1.996-.599 2.907-.51 3.03.294 5.632 1.712 7.546 4.13 1.272 1.607 2.122 3.625 2.32 5.66.077.79-.153 1.523-.153 2.294.517-.04.593-.86.74-1.3.472-1.416.111-3.277-.332-4.665-1.277-3.998-4.673-7.606-9.05-8.031-4.88-.475-9.207 2.423-11.066 6.883-.394.946-.62 1.903-.815 2.907-.197 1.01-.324 1.87.076 2.83.187.449.32 1.472.867 1.53Zm14.303-9.637c-.096.28.042.484.127.765.149.486.206 1.1.255 1.606.198 2.036-.424 4.986-2.524 5.89-.67.288-1.346.126-1.784-.46-.127-.168-.304-.38-.256-.611.05-.239.26-.39.434-.536v-.076c-1.81-1.43-4.707-1.1-6.348.382-1.237 1.117-1.774 3.047-.383 4.284.217.192.499.326.765.433.845.34 1.63-.128 2.448-.128-.07.894-.057 1.822.484 2.601 1.01 1.455 3.3 1.222 4.717.612 2.253-.97 4.054-2.894 4.716-5.278.172-.618.194-1.206.255-1.835.044-.457 0-.843 0-1.3 0-.202.056-.5-.013-.689-.067-.187-.289-.187-.356 0-.099.272-.032.632-.115.918-.105.357-.239.724-.383 1.07-.826 1.983-2.475 3.525-4.563 4.106-.974.27-3.008.675-3.417-.663-.064-.21-.025-.47-.025-.689-.823.022-1.76.43-2.524-.102-.845-.588-.168-1.975.459-2.447.736-.555 1.588-.34 2.37-.051v.153c-1.096.433-.794 1.39.077 1.887.881.501 2.142.623 3.136.47.999-.152 2.087-.587 2.83-1.287 1.627-1.532 1.737-4.126 1.21-6.118-.187-.714-.502-1.358-.879-1.989-.206-.344-.36-.713-.713-.918Zm-12.62 9.102c.47-.013.406-.476.548-.841.3-.774.726-1.52 1.287-2.142 1.505-1.667 3.52-2.184 5.66-1.708.607.135 1.305.412 1.76.867.42.42.442.886.688 1.376 1.772-.326 2.244-3.207.917-4.257-.832-.659-1.983-.807-2.982-.46-.281.099-.618.439-.918.434-.26-.004-.488-.4-.689-.548-.445-.327-1.04-.599-1.606-.599-1.1 0-2.125.847-2.74 1.683-1.34 1.819-1.925 3.947-1.925 6.195Z"/></svg>