<svg xmlns="http://www.w3.org/2000/svg" width="24" height="24" fill="none"><path fill="currentColor" d="M2 16.69c.166-.396-.096-.811-.154-1.227-.097-.701-.068-1.369 0-2.07.054-.551.251-1.107.46-1.61.283-.678.509-1.352.857-1.994C3.93 8.37 5.117 7.126 6.37 6.133c.72-.57 1.597-1.096 2.454-1.405a10.725 10.725 0 0 1 2.607-.614c4.534-.44 8.515 3.22 10.199 7.131.534 1.24.821 2.79.69 4.141-.038.394-.154.748-.154 1.15.395-.085.421-.419.537-.766.104-.312.264-.613.358-.92.104-.34.026-.799.026-1.15 0-2.828-1.113-5.71-2.99-7.822-1.13-1.27-2.379-2.254-3.912-2.978-1.256-.593-2.62-.78-3.987-.78-.478 0-.981-.046-1.457 0-2.658.259-5.346 1.885-6.952 3.988-1.628 2.131-2.399 4.357-2.8 6.978-.063.418-.176 1.041-.038 1.457.128.38.335.773.487 1.15.15.376.22.756.562.997Zm9.968-11.77c-.238.093-.432.669-.562.881-.452.74-.877 1.507-1.355 2.224-.157.236-.508.608-.435.92.064.267.34.496.512.69.34.382.602.836.933 1.227.167.198.465.416.51.69.057.333-.246.515-.446.703-.242.227-.65.801-.678 1.137-.062.746 1.062 1.115 1.125 1.764.03.31-.263.56-.447.767-.366.411-.655.884-1.01 1.304-.185.218-.417.385-.447.69-.041.421.31.738.511 1.073.413.69.82 1.385 1.24 2.07.143.235.347.925.702.831.267-.07.489-.61.64-.83.5-.735.912-1.54 1.367-2.3.163-.274.466-.574.345-.921-.236-.68-1.026-1.342-1.457-1.917-.132-.176-.357-.392-.41-.614-.066-.284.196-.506.359-.69.274-.309.745-.864.69-1.303-.041-.33-.395-.755-.613-.997-.181-.2-.464-.388-.447-.69.013-.252.199-.43.345-.614.403-.51.802-1.02 1.2-1.533.164-.21.387-.398.358-.69-.03-.316-.351-.654-.511-.92-.42-.705-.795-1.484-1.265-2.147-.135-.191-.456-.922-.754-.806ZM4.607 9.021c.059.28.237.444.37.69.373.688.775 1.376 1.15 2.07.14.26.3.817.627.908.15.041.31-.05.46-.064.467-.046.992-.16 1.457-.154.576.008 1.296 1.003 1.75.23.057-.096.068-.2.09-.306l-1.073-.92-.358-1.227-.192-.601-.907-.192-2.147-.306-1.227-.128Zm14.8-.077c-1.07.197-2.157.304-3.221.511-.29.057-.771-.005-.972.256-.332.431-.314 1.256-.51 1.764-.177.452-1.656 1.009-.73 1.495.424.222 1.076-.492 1.521-.499.442-.006.937.11 1.38.154.178.017.362.127.537.038.283-.144.414-.55.562-.805.385-.659.793-1.322 1.138-1.994.161-.313.433-.568.294-.92ZM4.682 17.917c.566 0 1.134-.174 1.687-.282.506-.098 1.028-.131 1.534-.23.27-.052.763.026.972-.191.135-.142.158-.42.204-.6.105-.42.206-.91.383-1.305.208-.46 1.33-.712.87-1.303-.403-.514-1.173.26-1.662.307-.603.058-1.401-.354-1.98-.14-.295.107-.431.657-.576.906-.313.536-.62 1.067-.908 1.61-.221.42-.524.738-.524 1.228Zm14.8 0c0-.53-.364-.864-.614-1.304a40.416 40.416 0 0 1-.83-1.534c-.12-.232-.32-.747-.55-.881-.202-.118-.557-.028-.767.012-.374.073-.925.145-1.303.103-.458-.051-1.13-.763-1.534-.384-.667.626.52.827.742 1.304.256.554.223 1.548.664 1.98.267.263.927.205 1.278.244.963.107 1.945.46 2.914.46Z"/></svg>