<svg xmlns="http://www.w3.org/2000/svg" width="24" height="24" fill="none"><path fill="currentColor" d="M1.973 16.353c.318-.14.196-.32.154-.616-.065-.471-.23-.903-.23-1.387 0-1.73.677-3.553 1.566-5.008 1.35-2.21 3.446-4.033 5.906-4.854a7.308 7.308 0 0 1 2.004-.385c.202-.008.652-.194.693.154.035.297-.33.841-.488 1.079-.668 1.001-1.381 1.66-2.44 2.234-.952.516-1.933.951-2.67 1.785-1.47 1.66-1.596 4.177-.167 5.92a6.086 6.086 0 0 0 1.913 1.553c.48.253 1.114.382 1.54.706.4.303.451.866.925 1.053 0-.776-.077-1.535-.077-2.311 0-.215.095-.721-.038-.9-.084-.11-.305-.136-.424-.192-.308-.14-.593-.296-.848-.526-1.05-.948-1.452-2.482-.59-3.698.48-.677 1.323-.908 1.977-1.335.357-.234.583-.58.925-.822l-.077 4.468.154 4.392.23 4.237c.569-.045.633-.626.771-1.079.303-.99.59-1.823 1.387-2.542 1.171-1.058 2.82-1.365 3.93-2.542.353-.376.637-.853.86-1.31 1.39-2.86-.85-5.916-3.634-6.767a1.45 1.45 0 0 1-.745-.552c-.203-.292-.24-.65-.642-.694.06.765.08 1.547.154 2.312.025.262-.072.596.013.847.093.277.533.393.757.54.472.307.947.741 1.233 1.232.561.962.424 2.848-.308 3.698-.458.532-1.048.605-1.618.938-.382.222-.72.71-1.156.757.202-2.555.17-5.162-.077-7.704-.054-.56.055-1.136 0-1.695a29.134 29.134 0 0 1-.154-2.388c-.002-.18-.101-.624.013-.758.194-.225.82.003 1.066.051 1.095.213 2.043.712 3.005 1.246 2.786 1.548 5.007 4.914 5.316 8.09.084.875-.078 1.752-.078 2.619.382-.044.413-.455.514-.77.108-.339.286-.662.386-1.002.087-.301.025-.69.025-1.002 0-2.702-1.197-5.702-3.005-7.704-.967-1.07-2.065-1.9-3.313-2.594-1.255-.697-2.735-1.027-4.16-1.027-1.459 0-2.787.09-4.16.642-4.14 1.667-6.67 5.77-7.088 10.067-.036.376-.154.779-.154 1.156 0 .345.257.694.385 1.001.183.439.42.937.54 1.387Z"/></svg>