<svg xmlns="http://www.w3.org/2000/svg" xml:space="preserve" width="14" height="14"><path d="M6.896.014c-.301.089-.59.316-.871.457-.677.338-1.355.68-2.057.964-.387.156-1.128.257-1.418.557-.156.162-.084.573-.12.788-.053.311-.25.566-.446.802a5.456 5.456 0 0 1-1.048.996c-.17.117-.447.195-.47.433-.02.193.1.407.14.593.11.49.228.979.359 1.464.254.937.402 2.08.893 2.928.21.363.56.68.855.976a19.655 19.655 0 0 0 1.813 1.618c.56.437 1.172.86 1.813 1.172.262.128.535.3.836.215.539-.153 1.079-.522 1.534-.837a16.804 16.804 0 0 0 2.335-1.924c.372-.372.875-.785 1.122-1.255.174-.33.234-.755.324-1.116.14-.56.313-1.112.453-1.673.132-.525.294-1.044.433-1.568.048-.18.185-.441.157-.628-.035-.226-.37-.337-.537-.45-.356-.238-.675-.581-.95-.91-.196-.234-.404-.492-.462-.8-.047-.247.05-.624-.136-.824-.253-.272-.896-.365-1.24-.49C9.46 1.228 8.713.86 8.012.485c-.282-.15-.786-.568-1.116-.47m-.07 1.315c.315-.068.564.103.837.225.727.326 1.4.811 2.022 1.302.454.358.893.75 1.284 1.178.159.174.37.36.437.593.145.504-.05 1.295-.112 1.812-.133 1.112-.326 2.387-.872 3.382-.415.754-1.066 1.377-1.713 1.931-.361.31-.733.604-1.116.887-.152.112-.33.29-.522.325-.375.068-.917-.51-1.186-.724-1.01-.807-2.184-1.755-2.564-3.047-.314-1.066-.543-2.099-.648-3.207-.038-.392-.18-.979-.08-1.36.1-.374.613-.783.887-1.042a12.418 12.418 0 0 1 2.37-1.771c.294-.167.644-.412.977-.484m-2.79 7.027c.208-.103.256-.362.359-.557.115-.22.38-.472.39-.732.007-.203-.196-.406-.264-.593-.175-.477-.076-.991.225-1.394.647-.866 1.902-.87 2.525.035.122.177.253.41.28.627.013.106-.033.317.087.376.136.066.428-.138.547-.2.525-.272 1.11-.65 1.482-1.117.36-.452-.088-.661-.401-.944-.584-.526-1.31-1.11-2.127-1.21-.29-.037-.536.08-.801.178-.791.293-1.356.813-1.987 1.358-.238.206-.712.468-.783.792-.075.346.06.84.118 1.185.12.729.178 1.48.35 2.196m1.849-3.014c-.873.196-.566 1.484.278 1.283.797-.19.517-1.462-.278-1.283m4.4.197c-.113.05-.207.21-.295.295a9.495 9.495 0 0 1-.69.612c-.094.076-.277.173-.284.31-.012.223.253.468.3.694.162.752-.3 1.446-.957 1.768-.764.376-1.652-.116-2-.827-.104-.212-.063-.612-.197-.78-.118-.15-.413.017-.514.107-.343.304-.577.776-.811 1.161-.107.175-.236.378-.178.593.127.47.808.947 1.156 1.26.253.229.912 1.003 1.29.865.373-.135.75-.559 1.04-.824.87-.801 1.642-1.572 1.88-2.765.124-.62.252-1.251.286-1.882.004-.08.19-.683-.026-.587M7.698 7.121c-.858.162-.65 1.447.21 1.295.812-.145.595-1.447-.21-1.295z" style="fill:currentColor;stroke:none;stroke-width:.0348578"/></svg>