<svg xmlns="http://www.w3.org/2000/svg" xml:space="preserve" width="14" height="14"><path d="M6.98.008C6.746.07 6.651.6 6.583.803c-.244.73-.486 1.532-.839 2.216-.14.271-.428.385-.644.583a4.25 4.25 0 0 0-.84 1.123c-.86 1.614-.779 3.901.242 5.423.214.318.466.615.77.852.184.144.413.237.574.41.198.214.267.55.358.818.135.402.308.791.442 1.194.072.214.148.647.465.568.21-.05.263-.429.332-.602.237-.598.373-1.328.713-1.876.144-.23.422-.333.628-.499a3.79 3.79 0 0 0 .876-1.002c.998-1.68 1-3.962-.04-5.627-.327-.525-.873-.793-1.224-1.263-.188-.253-.27-.626-.374-.92-.177-.504-.378-.998-.558-1.5-.073-.204-.18-.775-.486-.693m-1.605.76C2.405.778.634 3.573.634 6.294c0 1.075.283 2.083.99 2.913.184.217.564.678.884.66.157-.01.177-.177.211-.3.073-.265.363-.712.198-.982-.252-.414-.663-.65-.854-1.132-.64-1.613-.173-3.907 1.06-5.115.478-.469 1.035-.779 1.603-1.116.208-.123.566-.204.648-.453m3.001.068c.007.29.265 1.021.516 1.186.198.13.488.143.712.21.272.08.536.21.785.346.85.463 1.57 1.123 2.176 1.873.293.363.58.756.814 1.16.13.225.248.56.488.682l.034-.034c-.407-2.162-1.768-3.728-3.683-4.74-.537-.283-1.22-.67-1.842-.683m.17 12.585v.068c.581.184 1.305-.105 1.843-.326 2.265-.929 3.416-3.914 2.868-6.222-.186-.785-.548-1.478-1.129-2.046-.137-.134-.46-.519-.68-.432-.206.082-.48.977-.43 1.182.068.276.47.51.632.75.355.528.53 1.172.546 1.808.024.98-.178 2.158-.696 3-.656 1.065-1.807 1.79-2.953 2.218M6.841 4.837c.726-.107 1.23.41 1.537 1.013.474.936.452 1.948-.053 2.865-.237.43-.597.844-1.11.911-.714.094-1.226-.45-1.51-1.047-.45-.946-.44-1.87.052-2.797.224-.423.578-.87 1.084-.945M.122 7.965c-.108.456.204 1.05.376 1.466.654 1.59 1.793 2.52 3.24 3.37.411.242.877.42 1.33.57.19.064.377.17.58.12-.074-.305-.283-.939-.52-1.146-.202-.177-.626-.196-.88-.29a5.646 5.646 0 0 1-1.363-.745C1.69 10.438.908 9.225.19 7.965z" style="fill:currentColor;stroke:none;stroke-width:.0341055"/></svg>