<svg xmlns="http://www.w3.org/2000/svg" xml:space="preserve" width="14" height="14"><path d="M5.028.011c.105.365.78.727 1.046 1.015.88.951 1.362 2.223.716 3.434-.13.243-.662.878-.187 1.09.122.053.24-.065.318-.143.237-.238.432-.453.733-.613a2.271 2.271 0 0 1 2.442.218c.394.312.733.81.83 1.308.084.444-.082.923.04 1.35.086.305.325.517.553.722.27.245.566.457.913.581.106.04.32.12.413.018.127-.138-.262-.459-.345-.556-.475-.553-.817-1.15-.994-1.86-.24-.962.074-1.926-.318-2.88C10.456 1.91 8.308.878 6.56.381 6.065.241 5.55.015 5.028.011M.834 13.468c.091-.324.065-.656.134-.985.18-.856.612-1.773 1.325-2.306.475-.355.987-.466 1.568-.466.253 0 .643.07.766-.22.18-.427-.762-.488-1.02-.648a2.38 2.38 0 0 1-1.122-1.976c-.018-.69.363-1.38.902-1.79.286-.218.723-.297.965-.558.126-.136.191-.36.254-.533a3.08 3.08 0 0 0 .126-1.422c-.017-.108-.053-.428-.21-.425-.152.003-.245.49-.28.607A4.029 4.029 0 0 1 3.194 4.46C2.5 5.147 1.51 5.393.895 6.174-.29 7.682-.043 9.705.21 11.462c.08.563.172 1.618.624 2.006M5.211 3.95c-.168.53-.337.955-.71 1.386-.314.364-.723.547-.834 1.058-.287 1.316 1.34 2.265 2.266 1.203.416-.477.42-1.172.057-1.677-.13-.182-.395-.304-.48-.51-.07-.172.026-.406.026-.584 0-.3-.103-.619-.252-.876h-.073m5.543 4.778c-.09-.376-.449-.703-.616-1.058-.4-.853-.315-2.047-1.609-2.004-1.2.04-1.75 1.695-.727 2.395.283.193.637.314.983.254.206-.036.446-.243.656-.166.466.172.775.555 1.313.58m-4.595.091c-.76.181-.67.85-.988 1.363-.133.215-.422.247-.617.386-.109.08-.597.373-.504.544.076.138.591.028.723.016.747-.07 1.42.431 2.152.252.888-.217 1.205-1.362.7-2.07-.325-.456-.93-.618-1.466-.49m2.37.308c.12.502.392.92.362 1.46-.077 1.361-1.328 2.41-2.696 2.164-.404-.072-.732-.26-1.042-.525-.183-.156-.323-.405-.562-.48-.508-.16-1.308.19-1.714.476-.133.094-.46.298-.403.504.05.177.508.006.622-.026.688-.187 1.403-.134 2.078.08.87.278 1.544.913 2.444 1.128 1.715.41 3.623-.84 4.85-1.895.395-.34.792-.682 1.152-1.06.157-.165.32-.284.38-.513l-.037-.037c-1.102.228-2.21.84-3.355.355a2.694 2.694 0 0 1-1.153-.902c-.252-.345-.386-.955-.926-.73z" style="fill:currentColor;stroke:none;stroke-width:.0364687"/></svg>