<svg xmlns="http://www.w3.org/2000/svg" xml:space="preserve" width="14" height="14"><g style="fill:currentColor" transform="translate(-53.32 -25.406) scale(.5248)"><path d="M112.205 53.034c-.45.008-.914.154-1.366.384-.375.185-.533.28-.877.511a9.27 9.27 0 0 0-4.282 7.813c0 5.116 4.158 9.274 9.273 9.274 4.853 0 8.844-3.742 9.242-8.493h-1.062a8.209 8.209 0 0 1-8.18 7.436 8.208 8.208 0 0 1-8.215-8.217 8.203 8.203 0 0 1 4.198-7.17c.299-.201.323-.186.323-.186.412-.273 1.04-.608 1.676-.13 0 0 .004 0 .005.002l1.998 1.998 1.997-1.998.005-.002c.636-.478 1.264-.143 1.676.13 0 0 .639.344.938.546l.563-.89a9.29 9.29 0 0 0-1.081-.624c-.963-.491-1.988-.596-2.784.2l-1.315 1.315-1.314-1.315a1.895 1.895 0 0 0-1.419-.584z"/><circle cx="123.673" cy="61.023" r=".524"/><circle cx="123.293" cy="59.071" r=".524"/><circle cx="122.426" cy="57.209" r=".524"/><circle cx="121.251" cy="55.664" r=".524"/><path d="m113.777 52.544 1.176 1.175 1.177-1.175h-1.177z"/></g></svg>